<mxfile host="Electron" modified="2024-12-08T13:33:17.270Z" agent="Mozilla/5.0 (Windows NT 10.0; Win64; x64) AppleWebKit/537.36 (KHTML, like Gecko) draw.io/24.2.5 Chrome/120.0.6099.109 Electron/28.1.0 Safari/537.36" etag="EXBMphkfz38k4c052m76" version="24.2.5" type="device">
  <diagram name="第 1 页" id="is0QK-fiHAtaVsZCuhwN">
    <mxGraphModel dx="2074" dy="1197" grid="1" gridSize="10" guides="1" tooltips="1" connect="1" arrows="1" fold="1" page="1" pageScale="1" pageWidth="2000" pageHeight="1600" math="0" shadow="0">
      <root>
        <mxCell id="0" />
        <mxCell id="1" parent="0" />
        <mxCell id="-lhNUsDQplwtCo6XBkMz-1" value="设备" style="rounded=1;whiteSpace=wrap;html=1;" vertex="1" parent="1">
          <mxGeometry x="120" y="180" width="120" height="30" as="geometry" />
        </mxCell>
        <mxCell id="-lhNUsDQplwtCo6XBkMz-8" style="edgeStyle=orthogonalEdgeStyle;rounded=0;orthogonalLoop=1;jettySize=auto;html=1;entryX=0;entryY=0.5;entryDx=0;entryDy=0;" edge="1" parent="1" source="-lhNUsDQplwtCo6XBkMz-2" target="-lhNUsDQplwtCo6XBkMz-7">
          <mxGeometry relative="1" as="geometry" />
        </mxCell>
        <mxCell id="-lhNUsDQplwtCo6XBkMz-2" value="物理设备" style="rounded=1;whiteSpace=wrap;html=1;" vertex="1" parent="1">
          <mxGeometry x="260" y="120" width="120" height="30" as="geometry" />
        </mxCell>
        <mxCell id="-lhNUsDQplwtCo6XBkMz-3" value="逻辑设备" style="rounded=1;whiteSpace=wrap;html=1;" vertex="1" parent="1">
          <mxGeometry x="260" y="240" width="120" height="30" as="geometry" />
        </mxCell>
        <mxCell id="-lhNUsDQplwtCo6XBkMz-4" value="" style="shape=curlyBracket;whiteSpace=wrap;html=1;rounded=1;labelPosition=left;verticalLabelPosition=middle;align=right;verticalAlign=middle;" vertex="1" parent="1">
          <mxGeometry x="240" y="135" width="20" height="120" as="geometry" />
        </mxCell>
        <mxCell id="-lhNUsDQplwtCo6XBkMz-5" value="检查设备拓展是否支持" style="rounded=1;whiteSpace=wrap;html=1;" vertex="1" parent="1">
          <mxGeometry x="620" y="120" width="140" height="30" as="geometry" />
        </mxCell>
        <mxCell id="-lhNUsDQplwtCo6XBkMz-9" style="edgeStyle=orthogonalEdgeStyle;rounded=0;orthogonalLoop=1;jettySize=auto;html=1;entryX=0;entryY=0.5;entryDx=0;entryDy=0;" edge="1" parent="1" source="-lhNUsDQplwtCo6XBkMz-7" target="-lhNUsDQplwtCo6XBkMz-5">
          <mxGeometry relative="1" as="geometry" />
        </mxCell>
        <mxCell id="-lhNUsDQplwtCo6XBkMz-7" value="挑选物理设备" style="rounded=1;whiteSpace=wrap;html=1;" vertex="1" parent="1">
          <mxGeometry x="440" y="120" width="120" height="30" as="geometry" />
        </mxCell>
        <mxCell id="-lhNUsDQplwtCo6XBkMz-29" value="" style="group" vertex="1" connectable="0" parent="1">
          <mxGeometry x="120" y="330" width="850" height="440" as="geometry" />
        </mxCell>
        <mxCell id="-lhNUsDQplwtCo6XBkMz-10" value="交换链" style="rounded=1;whiteSpace=wrap;html=1;" vertex="1" parent="-lhNUsDQplwtCo6XBkMz-29">
          <mxGeometry y="317.5" width="120" height="30" as="geometry" />
        </mxCell>
        <mxCell id="-lhNUsDQplwtCo6XBkMz-25" value="创建交换链" style="rounded=1;whiteSpace=wrap;html=1;" vertex="1" parent="-lhNUsDQplwtCo6XBkMz-29">
          <mxGeometry x="140" y="410" width="120" height="30" as="geometry" />
        </mxCell>
        <mxCell id="-lhNUsDQplwtCo6XBkMz-27" value="" style="group" vertex="1" connectable="0" parent="-lhNUsDQplwtCo6XBkMz-29">
          <mxGeometry x="140" width="710" height="370" as="geometry" />
        </mxCell>
        <mxCell id="-lhNUsDQplwtCo6XBkMz-24" value="" style="group" vertex="1" connectable="0" parent="-lhNUsDQplwtCo6XBkMz-27">
          <mxGeometry y="70" width="460" height="300" as="geometry" />
        </mxCell>
        <mxCell id="-lhNUsDQplwtCo6XBkMz-14" value="为交换链选择合适的设置" style="rounded=1;whiteSpace=wrap;html=1;" vertex="1" parent="-lhNUsDQplwtCo6XBkMz-24">
          <mxGeometry y="150" width="150" height="30" as="geometry" />
        </mxCell>
        <mxCell id="-lhNUsDQplwtCo6XBkMz-17" value="&lt;div&gt;选择合适的表&lt;span style=&quot;background-color: initial;&quot;&gt;面格式&lt;/span&gt;&lt;/div&gt;" style="rounded=1;whiteSpace=wrap;html=1;" vertex="1" parent="-lhNUsDQplwtCo6XBkMz-24">
          <mxGeometry x="170" y="130" width="120" height="30" as="geometry" />
        </mxCell>
        <mxCell id="-lhNUsDQplwtCo6XBkMz-18" value="选择合适的呈现模式" style="rounded=1;whiteSpace=wrap;html=1;" vertex="1" parent="-lhNUsDQplwtCo6XBkMz-24">
          <mxGeometry x="170" y="200" width="120" height="30" as="geometry" />
        </mxCell>
        <mxCell id="-lhNUsDQplwtCo6XBkMz-19" value="交换范围" style="rounded=1;whiteSpace=wrap;html=1;" vertex="1" parent="-lhNUsDQplwtCo6XBkMz-24">
          <mxGeometry x="170" y="270" width="120" height="30" as="geometry" />
        </mxCell>
        <mxCell id="-lhNUsDQplwtCo6XBkMz-20" value="" style="shape=curlyBracket;whiteSpace=wrap;html=1;rounded=1;labelPosition=left;verticalLabelPosition=middle;align=right;verticalAlign=middle;" vertex="1" parent="-lhNUsDQplwtCo6XBkMz-24">
          <mxGeometry x="150" y="45" width="20" height="240" as="geometry" />
        </mxCell>
        <mxCell id="-lhNUsDQplwtCo6XBkMz-23" value="" style="group" vertex="1" connectable="0" parent="-lhNUsDQplwtCo6XBkMz-24">
          <mxGeometry x="170" width="290" height="100" as="geometry" />
        </mxCell>
        <mxCell id="-lhNUsDQplwtCo6XBkMz-11" value="查询交换链支持细节" style="rounded=1;whiteSpace=wrap;html=1;movable=1;resizable=1;rotatable=1;deletable=1;editable=1;locked=0;connectable=1;" vertex="1" parent="-lhNUsDQplwtCo6XBkMz-23">
          <mxGeometry y="32.5" width="120" height="30" as="geometry" />
        </mxCell>
        <mxCell id="-lhNUsDQplwtCo6XBkMz-21" value="" style="group" vertex="1" connectable="0" parent="-lhNUsDQplwtCo6XBkMz-23">
          <mxGeometry x="120" width="170" height="100" as="geometry" />
        </mxCell>
        <mxCell id="-lhNUsDQplwtCo6XBkMz-15" value="" style="shape=curlyBracket;whiteSpace=wrap;html=1;rounded=1;labelPosition=left;verticalLabelPosition=middle;align=right;verticalAlign=middle;movable=1;resizable=1;rotatable=1;deletable=1;editable=1;locked=0;connectable=1;" vertex="1" parent="-lhNUsDQplwtCo6XBkMz-21">
          <mxGeometry y="-60" width="20" height="140" as="geometry" />
        </mxCell>
        <mxCell id="-lhNUsDQplwtCo6XBkMz-22" value="" style="group" vertex="1" connectable="0" parent="-lhNUsDQplwtCo6XBkMz-21">
          <mxGeometry x="20" width="150" height="100" as="geometry" />
        </mxCell>
        <mxCell id="-lhNUsDQplwtCo6XBkMz-12" value="查询Surface支持的格式" style="rounded=1;whiteSpace=wrap;html=1;movable=1;resizable=1;rotatable=1;deletable=1;editable=1;locked=0;connectable=1;" vertex="1" parent="-lhNUsDQplwtCo6XBkMz-22">
          <mxGeometry width="150" height="30" as="geometry" />
        </mxCell>
        <mxCell id="-lhNUsDQplwtCo6XBkMz-13" value="可用的呈现模式" style="rounded=1;whiteSpace=wrap;html=1;movable=1;resizable=1;rotatable=1;deletable=1;editable=1;locked=0;connectable=1;" vertex="1" parent="-lhNUsDQplwtCo6XBkMz-22">
          <mxGeometry y="70" width="150" height="30" as="geometry" />
        </mxCell>
        <mxCell id="-lhNUsDQplwtCo6XBkMz-26" value="&lt;div&gt;基础表面特性(交换链的最小/最大图像数量，最小/最大图像宽度、高&lt;span style=&quot;background-color: initial;&quot;&gt;度)&lt;/span&gt;&lt;/div&gt;" style="rounded=1;whiteSpace=wrap;html=1;" vertex="1" parent="-lhNUsDQplwtCo6XBkMz-27">
          <mxGeometry x="310" width="400" height="30" as="geometry" />
        </mxCell>
        <mxCell id="-lhNUsDQplwtCo6XBkMz-28" value="" style="shape=curlyBracket;whiteSpace=wrap;html=1;rounded=1;labelPosition=left;verticalLabelPosition=middle;align=right;verticalAlign=middle;" vertex="1" parent="-lhNUsDQplwtCo6XBkMz-29">
          <mxGeometry x="120" y="235" width="20" height="195" as="geometry" />
        </mxCell>
      </root>
    </mxGraphModel>
  </diagram>
</mxfile>
